<svg width="78" height="79" viewBox="0 0 78 79" fill="none" xmlns="http://www.w3.org/2000/svg">
<rect y="0.5" width="78" height="78" rx="39" fill="#EF4444"/>
<path d="M17.917 56.7507L39.0003 20.334L60.0837 56.7507H17.917ZM24.5295 52.9173H53.4712L39.0003 28.0007L24.5295 52.9173ZM39.0003 51.0007C39.5434 51.0007 39.9986 50.817 40.3659 50.4496C40.7333 50.0823 40.917 49.627 40.917 49.084C40.917 48.5409 40.7333 48.0857 40.3659 47.7184C39.9986 47.351 39.5434 47.1673 39.0003 47.1673C38.4573 47.1673 38.0021 47.351 37.6347 47.7184C37.2673 48.0857 37.0837 48.5409 37.0837 49.084C37.0837 49.627 37.2673 50.0823 37.6347 50.4496C38.0021 50.817 38.4573 51.0007 39.0003 51.0007ZM37.0837 45.2507H40.917V35.6673H37.0837V45.2507Z" fill="#F4F6F5"/>
</svg>
