<svg width="25" height="24" viewBox="0 0 25 24" fill="none" xmlns="http://www.w3.org/2000/svg">
<path fill-rule="evenodd" clip-rule="evenodd" d="M8.50725 15.3502H6.6715V13.5145H8.50725V15.3502ZM8.50725 11.6787H6.6715V9.84299H8.50725V11.6787ZM8.50725 8.00725H6.6715V6.1715H8.50725V8.00725ZM11.8932 15.3502H10.343V13.5145H12.7533C12.3607 14.0602 12.0656 14.6805 11.8932 15.3502ZM11.7386 17.186H4.83575V4.33575H17.686V11.2386C18.3365 11.2923 18.955 11.4591 19.5217 11.7192V2.5H3V19.0217H12.2191C11.959 18.455 11.7922 17.8365 11.7386 17.186ZM15.8502 11.3933V9.84299H10.343V11.6787H15.0224C15.2881 11.5626 15.5647 11.4668 15.8502 11.3933ZM15.8502 8.00725H10.343V6.1715H15.8502V8.00725ZM17.227 13.239C15.3006 13.239 13.739 14.8006 13.739 16.727C13.739 18.6533 15.3006 20.2149 17.227 20.2149C19.1533 20.2149 20.7149 18.6533 20.7149 16.727C20.7149 14.8006 19.1533 13.239 17.227 13.239ZM12.454 16.727C12.454 14.0909 14.5909 11.954 17.227 11.954C19.863 11.954 21.9999 14.0909 21.9999 16.727C21.9999 19.363 19.863 21.4999 17.227 21.4999C14.5909 21.4999 12.454 19.363 12.454 16.727ZM16.9134 18.9278V19.6185H17.5559V18.9439C17.8879 18.8957 18.1664 18.7725 18.3913 18.5744C18.6162 18.3763 18.7286 18.0871 18.7286 17.7069C18.7286 17.4017 18.6336 17.1326 18.4435 16.8997C18.2534 16.6668 17.9736 16.4968 17.6041 16.3897C17.2079 16.2772 16.9295 16.1701 16.7688 16.0684C16.6082 15.9667 16.5279 15.8275 16.5279 15.6507C16.5279 15.4955 16.5894 15.3656 16.7126 15.2612C16.8357 15.1568 17.0151 15.1046 17.2507 15.1046C17.4542 15.1046 17.6149 15.1474 17.7327 15.2331C17.8505 15.3188 17.9415 15.4473 18.0057 15.6186L18.6001 15.3616C18.5198 15.1421 18.3926 14.956 18.2186 14.8034C18.0446 14.6508 17.8237 14.553 17.5559 14.5102V13.8355H16.9134V14.5102C16.6778 14.537 16.4475 14.6468 16.2226 14.8395C15.9977 15.0323 15.8853 15.3027 15.8853 15.6507C15.8853 15.9399 15.971 16.1849 16.1423 16.3857C16.3137 16.5865 16.6296 16.7592 17.0901 16.9037C17.5185 17.043 17.7916 17.1674 17.9094 17.2772C18.0272 17.387 18.0861 17.5356 18.0861 17.723C18.0861 17.9318 18.0098 18.0858 17.8571 18.1848C17.7045 18.2839 17.5185 18.3334 17.2989 18.3334C17.0419 18.3334 16.8344 18.2665 16.6764 18.1326C16.5185 17.9988 16.3993 17.8033 16.319 17.5463L15.7247 17.7872C15.821 18.1192 15.9723 18.3763 16.1785 18.5583C16.3846 18.7404 16.6296 18.8635 16.9134 18.9278Z" fill="#5D75F8"/>
</svg>
