<svg width="24" height="24" viewBox="0 0 24 24" fill="none" xmlns="http://www.w3.org/2000/svg">
<path fill-rule="evenodd" clip-rule="evenodd" d="M12 2C13.0452 2 14.053 2.16035 15 2.4578V4.58152C14.0736 4.20651 13.0609 4 12 4C7.58172 4 4 7.58172 4 12C4 16.4183 7.58172 20 12 20C16.4183 20 20 16.4183 20 12C20 10.9391 19.7935 9.92643 19.4185 9H21.5422C21.8396 9.94704 22 10.9548 22 12C22 17.5228 17.5228 22 12 22C6.47715 22 2 17.5228 2 12C2 6.47715 6.47715 2 12 2ZM12.9998 6H10.9998V7.6104C10.9112 7.62885 10.8226 7.65008 10.734 7.67407C10.35 7.77807 10.006 7.93807 9.70202 8.15407C9.39802 8.37007 9.15002 8.64207 8.95802 8.97007C8.77402 9.29007 8.68202 9.67007 8.68202 10.1101C8.68202 10.5021 8.75402 10.8381 8.89802 11.1181C9.05002 11.3901 9.24602 11.6181 9.48602 11.8021C9.72602 11.9861 9.99802 12.1381 10.302 12.2581C10.5301 12.3421 10.7627 12.4171 10.9998 12.4831V14.7972C10.923 14.7591 10.8504 14.7167 10.782 14.6701C10.614 14.5421 10.478 14.3781 10.374 14.1781C10.27 13.9781 10.218 13.7341 10.218 13.4461H8.39402C8.38602 13.9741 8.48202 14.4301 8.68202 14.8141C8.88202 15.1981 9.15002 15.5141 9.48602 15.7621C9.83002 16.0101 10.222 16.1901 10.662 16.3021C10.7738 16.332 10.8864 16.3582 10.9998 16.3807V18H12.9998V16.4112C13.2046 16.3783 13.3974 16.3339 13.578 16.2781C14.026 16.1421 14.398 15.9541 14.694 15.7141C14.998 15.4661 15.226 15.1741 15.378 14.8381C15.53 14.5021 15.606 14.1381 15.606 13.7461C15.606 13.2661 15.502 12.8741 15.294 12.5701C15.094 12.2581 14.854 12.0101 14.574 11.8261C14.294 11.6421 14.01 11.5101 13.722 11.4301C13.442 11.3421 13.222 11.2821 13.062 11.2501L12.9998 11.2343V9.26833C13.1359 9.36212 13.2446 9.4867 13.326 9.64207C13.422 9.81007 13.478 10.0221 13.494 10.2781H15.318C15.318 9.78207 15.222 9.36207 15.03 9.01807C14.846 8.66607 14.594 8.37807 14.274 8.15407C13.954 7.93007 13.586 7.77007 13.17 7.67407C13.1136 7.6597 13.0569 7.64632 12.9998 7.63394V6ZM10.9998 9.15534C10.9747 9.16873 10.9502 9.18297 10.926 9.19807C10.806 9.27807 10.706 9.37807 10.626 9.49807C10.546 9.61807 10.506 9.77007 10.506 9.95407C10.506 10.1221 10.538 10.2581 10.602 10.3621C10.666 10.4661 10.79 10.5621 10.974 10.6501L10.9998 10.6617V9.15534ZM12.9998 13.0469V14.906C13.0662 14.8827 13.131 14.8561 13.194 14.8261C13.362 14.7461 13.502 14.6381 13.614 14.5021C13.726 14.3581 13.782 14.1781 13.782 13.9621C13.782 13.7301 13.706 13.5421 13.554 13.3981C13.4144 13.2584 13.2296 13.1414 12.9998 13.0469ZM19.4373 3.53394L16.0117 6.94068L17.0723 8.00134L20.5044 4.58809V7.02011H22.0044V2.03394H17.009V3.53394H19.4373Z" fill="#5D75F8"/>
</svg>
