<svg width="32" height="32" viewBox="0 0 32 32" fill="none" xmlns="http://www.w3.org/2000/svg">
<g clip-path="url(#clip0_13659_123009)">
<g filter="url(#filter0_d_13659_123009)">
<path d="M32 0H0V32H32V0Z" fill="#151A34"/>
<mask id="mask0_13659_123009" style="mask-type:luminance" maskUnits="userSpaceOnUse" x="3" y="10" width="25" height="13">
<path d="M27.7202 10H3V23H27.7202V10Z" fill="white"/>
</mask>
<g mask="url(#mask0_13659_123009)">
<path d="M24.9797 21.8133C24.9419 21.7852 24.9346 21.749 24.9232 21.7142C24.8306 21.4307 24.7374 21.1474 24.6448 20.864C24.5392 20.5408 24.4339 20.2174 24.3281 19.8942C24.3167 19.8595 24.3054 19.8244 24.2897 19.7914C24.2839 19.7791 24.2672 19.7695 24.2534 19.764C24.2393 19.7586 24.2226 19.7586 24.2071 19.7584C24.1652 19.7574 24.1232 19.7576 24.0813 19.7576C23.0586 19.7576 22.0362 19.7576 21.0135 19.7576C20.9716 19.7576 20.9296 19.7573 20.8877 19.7582C20.8143 19.7599 20.8011 19.7693 20.7786 19.8446C20.6722 20.2005 20.5666 20.5567 20.4607 20.9127C20.4473 20.9578 20.4343 21.0031 20.4203 21.048C20.4105 21.0795 20.3817 21.0871 20.3619 21.0637C20.3381 21.0357 20.3148 21.0074 20.2922 20.9788C20.0062 20.6173 19.7203 20.2557 19.4343 19.894C19.4116 19.8654 19.389 19.8363 19.3684 19.8061C19.3559 19.7876 19.3568 19.7661 19.3685 19.7471C19.3905 19.7114 19.4133 19.6763 19.4356 19.6408C19.6554 19.2946 19.8357 18.9291 19.9729 18.5429C20.0977 18.192 20.188 17.8323 20.244 17.4637C20.2959 17.1214 20.3271 16.7774 20.3237 16.4316C20.3173 15.7776 20.2162 15.1393 19.9852 14.5246C19.9429 14.412 19.8955 14.3012 19.8476 14.1908C19.8297 14.1495 19.8289 14.112 19.8433 14.0699C19.9123 13.8667 19.9794 13.6631 20.0472 13.4595C20.2502 12.849 20.453 12.238 20.6569 11.6276C20.6751 11.5735 20.6854 11.5156 20.7251 11.4633C20.741 11.4607 20.761 11.455 20.7811 11.4542C20.823 11.4525 20.865 11.4533 20.9069 11.4533C21.9923 11.4533 23.0779 11.4533 24.1633 11.4533C24.2207 11.4533 24.2782 11.455 24.3281 11.4557C24.3716 11.4797 24.3791 11.5165 24.3903 11.5507C24.4638 11.7744 24.5371 11.998 24.6102 12.222C25.287 14.2907 25.9634 16.3593 26.6404 18.428C26.9902 19.4971 27.3406 20.5661 27.6904 21.6352C27.705 21.6797 27.7163 21.7256 27.7282 21.7708C27.7332 21.7897 27.7141 21.8135 27.6942 21.8139C27.6523 21.8148 27.6103 21.8163 27.5685 21.8163C26.7506 21.8163 25.9324 21.8163 25.1145 21.8163C25.0674 21.8163 25.0206 21.8142 24.9797 21.8133ZM23.6477 17.7897C23.6496 17.7778 23.6545 17.7667 23.6521 17.7578C23.6407 17.7176 23.6279 17.6776 23.6146 17.638C23.4179 17.0473 23.2212 16.4565 23.024 15.8659C22.8517 15.3499 22.6789 14.8339 22.506 14.318C22.4979 14.2937 22.4852 14.2707 22.4737 14.2476C22.4718 14.2439 22.4648 14.2416 22.4599 14.2412C22.4565 14.2408 22.4503 14.2439 22.4491 14.2469C22.4342 14.2857 22.4187 14.3246 22.406 14.3642C22.2645 14.8078 22.1233 15.2516 21.9825 15.6954C21.7752 16.3486 21.5684 17.0022 21.3615 17.6556C21.352 17.6854 21.3429 17.7156 21.335 17.7457C21.3265 17.7782 21.3403 17.7995 21.3704 17.8008C21.407 17.8023 21.4437 17.8035 21.4803 17.8035C22.1516 17.8035 22.8228 17.8035 23.4941 17.8035C23.5307 17.8035 23.5676 17.8035 23.6041 17.8014C23.6192 17.8005 23.6335 17.7937 23.6477 17.7897Z" fill="#5D75F8"/>
<path d="M9.3767 15.1875C9.3352 15.3628 9.3026 15.5401 9.2792 15.7194C9.2628 15.8441 9.2539 15.9692 9.2427 16.0945C9.2412 16.1118 9.2397 16.129 9.2386 16.1464C9.1176 16.1305 8.9969 16.1145 8.8759 16.0986C8.6682 16.0713 8.4603 16.0439 8.2526 16.0169C8.0604 15.9918 7.8682 15.9671 7.676 15.942C7.463 15.9141 7.25 15.8858 7.037 15.8583C6.8397 15.8326 6.642 15.8081 6.4447 15.7826C6.2472 15.7571 6.0499 15.7309 5.8526 15.705C5.65 15.6786 5.4474 15.6524 5.2448 15.626C5.0473 15.6003 4.85 15.5749 4.6525 15.549C4.4552 15.5232 4.2579 15.4969 4.0604 15.4711C3.84757 15.4432 3.63457 15.4154 3.42158 15.3875C3.30214 15.372 3.1825 15.3567 3.06306 15.3405C3.04926 15.3386 3.03622 15.3317 3.00391 15.3207C3.09065 15.3066 3.1585 15.3062 3.22635 15.3049C3.66122 15.296 4.0961 15.2877 4.531 15.279C5.448 15.2607 6.3649 15.2417 7.2819 15.2243C7.9801 15.2113 8.6784 15.1994 9.3767 15.1875Z" fill="#5D75F8"/>
<path d="M16.1674 10.704C16.1674 10.7389 16.1445 10.7589 16.1063 10.7604C16.0644 10.7621 16.0224 10.7625 15.9805 10.7627C15.9019 10.763 15.8232 10.7632 15.7444 10.763C15.6632 10.763 15.6492 10.7861 15.6488 10.8529C15.6482 10.9653 15.6485 11.0778 15.6481 11.1902C15.5457 11.1697 15.4418 11.1521 15.3371 11.1378C15.1553 11.1129 14.9724 11.0968 14.7885 11.0934C14.4364 11.087 14.0862 11.0995 13.7379 11.1568C13.6778 11.1668 13.6178 11.1776 13.5581 11.1891C13.5573 11.0659 13.5566 10.9429 13.5557 10.8198C13.5555 10.7932 13.5326 10.7683 13.5077 10.7674C13.4553 10.7649 13.403 10.7636 13.3506 10.7629C13.2616 10.7615 13.1725 10.7612 13.0835 10.7595C13.0574 10.7591 13.0356 10.7353 13.0341 10.7083C13.0328 10.6874 13.0315 10.6666 13.0315 10.6457C13.0314 10.4676 13.0312 10.2897 13.0312 10.1117C13.0312 10.0961 13.032 10.0802 13.0326 10.0646C13.0341 10.0132 13.0615 10.0025 13.1038 10.0014C13.1509 10 13.1981 10 13.2454 10H14.5982C15.0701 10 15.5422 9.99983 16.0141 10.0004C16.0557 10.0004 16.0976 10.0046 16.139 10.0095C16.1471 10.0102 16.156 10.0215 16.1609 10.03C16.1658 10.0387 16.1681 10.05 16.1681 10.0602C16.1683 10.2747 16.1683 10.4893 16.1674 10.704Z" fill="#5D75F8"/>
<path d="M10.1425 13.4531C10.1147 13.495 10.0877 13.5377 10.0612 13.5807C10.009 13.6654 9.95966 13.7518 9.90996 13.838C9.81436 14.0039 9.72886 14.1744 9.65366 14.3492C9.53596 14.3384 9.41816 14.3278 9.30046 14.3173C9.17006 14.3058 9.03966 14.2941 8.90906 14.2829C8.73686 14.2682 8.56456 14.2546 8.39236 14.2399C8.21486 14.2246 8.03746 14.2084 7.85996 14.1926C7.72426 14.1805 7.58876 14.1678 7.45306 14.1563C7.28066 14.1416 7.10836 14.1284 6.93616 14.1137C6.75866 14.0984 6.58126 14.0818 6.40376 14.066C6.26826 14.0539 6.13256 14.0412 5.99686 14.0297C5.69916 14.0046 5.40156 13.9805 5.10406 13.9548C5.01546 13.9471 4.92696 13.9361 4.83856 13.9258C4.82886 13.9246 4.81966 13.9182 4.78906 13.9052C4.90166 13.8931 4.98996 13.8824 5.07836 13.8748C5.25586 13.8595 5.43346 13.8465 5.61096 13.8318C5.79896 13.8161 5.98686 13.7997 6.17476 13.7837C6.31566 13.7716 6.45646 13.7588 6.59746 13.7473C6.78026 13.7326 6.96316 13.7192 7.14596 13.7041C7.32866 13.689 7.51126 13.6722 7.69386 13.6563C7.83486 13.6441 7.97586 13.6316 8.11676 13.6203C8.29956 13.6056 8.48246 13.5926 8.66526 13.5775C8.84276 13.5627 9.01996 13.546 9.19746 13.5305C9.33846 13.5182 9.47926 13.5061 9.62026 13.4946C9.79426 13.4807 9.96836 13.4669 10.1425 13.4531Z" fill="#5D75F8"/>
<path d="M9.39304 17.832C8.97024 17.7545 8.54764 17.6766 8.12474 17.5996C7.52204 17.49 6.91894 17.382 6.31624 17.2726C5.74434 17.1688 5.17264 17.0643 4.60094 16.9596C4.55544 16.9513 4.51084 16.9381 4.46564 16.9273C4.46544 16.9207 4.46504 16.9141 4.46484 16.9075C4.48034 16.9054 4.49564 16.9017 4.51114 16.9011C4.78334 16.8903 5.05564 16.88 5.32784 16.8698C5.79384 16.8524 6.25974 16.8351 6.72584 16.8177C6.75714 16.8166 6.78854 16.8149 6.81994 16.8139C7.25464 16.7992 7.68924 16.7856 8.12374 16.77C8.49304 16.7566 8.86254 16.7409 9.23184 16.7266C9.23994 16.8954 9.25644 17.0596 9.27684 17.2237C9.30254 17.4294 9.34164 17.632 9.39304 17.832Z" fill="#5D75F8"/>
<path d="M17.1635 16.592C17.0485 16.592 16.9336 16.5924 16.8187 16.5918C16.7875 16.5918 16.756 16.5911 16.725 16.5873C16.67 16.5805 16.6224 16.5264 16.6176 16.4686C16.6127 16.4082 16.6483 16.3511 16.7036 16.3347C16.7284 16.3273 16.7545 16.323 16.7804 16.3216C16.8221 16.3194 16.8639 16.3207 16.9057 16.3207C17.1041 16.3207 17.3027 16.3201 17.5012 16.3211C17.5428 16.3213 17.5849 16.323 17.6255 16.3305C17.6896 16.3424 17.7323 16.4047 17.7263 16.4692C17.7208 16.5262 17.6722 16.5807 17.6178 16.5875C17.5868 16.5913 17.5552 16.5916 17.524 16.5918C17.4038 16.5922 17.2837 16.5918 17.1635 16.592Z" fill="#5D75F8"/>
<path d="M12.0304 16.5914C11.9049 16.5914 11.7792 16.5918 11.6537 16.5912C11.6277 16.5912 11.6012 16.5899 11.5759 16.585C11.525 16.5753 11.4742 16.5119 11.4727 16.4597C11.4714 16.4127 11.5103 16.354 11.5558 16.3372C11.5753 16.3301 11.5959 16.3246 11.6163 16.3225C11.6422 16.3197 11.6685 16.3204 11.6948 16.3204C11.9197 16.3204 12.1446 16.3201 12.3696 16.3206C12.4061 16.3206 12.4432 16.3216 12.4789 16.3274C12.542 16.3376 12.5906 16.3999 12.5881 16.4616C12.5855 16.5238 12.5324 16.5818 12.4698 16.588C12.4386 16.591 12.4073 16.5912 12.3759 16.5914C12.2608 16.5918 12.1455 16.5914 12.0304 16.5914Z" fill="#5D75F8"/>
<path d="M13.2185 14.9452C13.2115 15.005 13.1871 15.0425 13.1423 15.067C13.0958 15.0925 13.051 15.0863 13.009 15.0582C12.9875 15.0438 12.9684 15.0253 12.9499 15.007C12.7756 14.8336 12.6016 14.6603 12.4283 14.4861C12.4064 14.464 12.3858 14.4399 12.3687 14.414C12.3377 14.3665 12.3502 14.298 12.3939 14.2569C12.4394 14.2138 12.5035 14.2061 12.5523 14.2395C12.5736 14.2542 12.594 14.271 12.6124 14.2893C12.7904 14.4663 12.968 14.6436 13.1453 14.8212C13.1636 14.8395 13.1822 14.8591 13.195 14.8814C13.2075 14.9033 13.2128 14.9292 13.2185 14.9452Z" fill="#5D75F8"/>
<path d="M16.8501 14.3589C16.8437 14.3767 16.8367 14.4072 16.8217 14.4335C16.8093 14.4555 16.7885 14.4733 16.7699 14.4918C16.6 14.6616 16.4301 14.8314 16.2597 15.0006C16.2376 15.0225 16.2143 15.044 16.1888 15.0618C16.1366 15.0984 16.0641 15.0853 16.0196 15.0344C15.9817 14.9908 15.9773 14.9199 16.0113 14.875C16.027 14.8542 16.0444 14.8346 16.0629 14.8163C16.2364 14.6427 16.4101 14.4693 16.584 14.2961C16.6025 14.2778 16.6216 14.2595 16.6428 14.2448C16.6841 14.2159 16.7289 14.2093 16.7756 14.2338C16.821 14.2578 16.8455 14.295 16.8501 14.3589Z" fill="#5D75F8"/>
<path d="M12.4927 18.7027C12.4279 18.6992 12.3907 18.6754 12.3667 18.6297C12.3421 18.5829 12.3491 18.5386 12.3761 18.4965C12.3873 18.4792 12.402 18.4637 12.4168 18.449C12.5976 18.268 12.7789 18.0875 12.9601 17.9067C12.9713 17.8958 12.9828 17.885 12.9949 17.875C13.0448 17.8339 13.1221 17.8333 13.1682 17.8735C13.2249 17.9229 13.2334 17.9975 13.1877 18.0554C13.1716 18.0758 13.1533 18.0946 13.1349 18.1131C12.9652 18.2831 12.7951 18.4529 12.625 18.6224C12.6065 18.6407 12.5887 18.6614 12.5666 18.6741C12.5404 18.689 12.5097 18.6965 12.4927 18.7027Z" fill="#5D75F8"/>
<path d="M14.7351 13.9014C14.7351 14.0214 14.7355 14.1416 14.7349 14.2616C14.7349 14.2927 14.734 14.3244 14.7295 14.3552C14.7191 14.4261 14.6274 14.4754 14.5598 14.4482C14.5125 14.4293 14.4808 14.3971 14.4741 14.3456C14.4702 14.3146 14.469 14.2831 14.469 14.252C14.4687 14.0171 14.4687 13.782 14.469 13.5471C14.469 13.516 14.4717 13.4846 14.4747 13.4535C14.4774 13.4265 14.4908 13.4043 14.51 13.3856C14.5743 13.3233 14.6601 13.331 14.7104 13.4056C14.7215 13.4222 14.7289 13.4433 14.7315 13.4631C14.7357 13.4941 14.7349 13.5256 14.7349 13.5569C14.7353 13.6718 14.7351 13.7867 14.7351 13.9014Z" fill="#5D75F8"/>
<path d="M14.7353 19.0467C14.7353 19.1612 14.7357 19.2757 14.7353 19.3902C14.7353 19.4214 14.7345 19.4527 14.7309 19.4836C14.7249 19.538 14.6699 19.5865 14.6126 19.5904C14.5476 19.595 14.4847 19.5489 14.4756 19.4878C14.4711 19.457 14.4694 19.4257 14.4692 19.3946C14.4686 19.1551 14.4686 18.9155 14.4692 18.6761C14.4692 18.645 14.4713 18.6136 14.4762 18.5829C14.4854 18.5265 14.5387 18.4851 14.6 18.4844C14.6663 18.4834 14.7249 18.5312 14.7313 18.5938C14.7345 18.6248 14.7347 18.6561 14.7349 18.6874C14.7353 18.8072 14.7353 18.9268 14.7353 19.0467Z" fill="#5D75F8"/>
<path d="M20.2443 21.576C20.2265 21.5502 20.2097 21.5236 20.1906 21.4989C19.9731 21.2166 19.7552 20.9347 19.5374 20.6528C19.3324 20.3875 19.1273 20.1223 18.9227 19.8568C18.9068 19.8362 18.8922 19.8143 18.8796 19.7915C18.8752 19.7838 18.8764 19.7707 18.8794 19.7615C18.8913 19.726 18.9181 19.6996 18.9397 19.6702C19.2761 19.2089 19.5276 18.7055 19.6917 18.1587C19.7731 17.8875 19.8313 17.6115 19.8693 17.3307C19.8954 17.1385 19.9126 16.9455 19.9207 16.7521C19.9353 16.4009 19.919 16.0509 19.8705 15.7023C19.8431 15.5049 19.8058 15.3098 19.7567 15.117C19.6049 14.5224 19.3519 13.9738 19.0024 13.4692C18.7356 13.0841 18.4258 12.7368 18.0764 12.4249C17.849 12.2221 17.6076 12.0377 17.3506 11.874C16.8248 11.5389 16.259 11.3126 15.6546 11.1921C15.5522 11.1715 15.4484 11.154 15.3437 11.1396C15.1619 11.1147 14.979 11.0987 14.7951 11.0953C14.443 11.0889 14.0928 11.1013 13.7445 11.1587C13.6844 11.1687 13.6243 11.1794 13.5645 11.1909C13.4029 11.2223 13.2432 11.26 13.0853 11.3066C12.4242 11.5019 11.822 11.813 11.277 12.234C10.8306 12.5785 10.4533 12.9857 10.1455 13.4547C10.1177 13.4966 10.0907 13.5392 10.0642 13.5823C10.012 13.667 9.96267 13.7534 9.91297 13.8396C9.81737 14.0055 9.73197 14.176 9.65667 14.3507C9.58107 14.5262 9.51567 14.706 9.46037 14.8902C9.43087 14.9883 9.40437 15.087 9.38097 15.1864C9.33937 15.3617 9.30687 15.5391 9.28347 15.7183C9.26697 15.843 9.25817 15.9681 9.24697 16.0934C9.24547 16.1107 9.24397 16.1279 9.24277 16.1453C9.23397 16.2583 9.22997 16.37 9.23057 16.4709C9.22997 16.5623 9.23207 16.6517 9.23637 16.74C9.24447 16.9089 9.26097 17.073 9.28137 17.2372C9.30707 17.4428 9.34617 17.6455 9.39757 17.8455C9.41747 17.9241 9.43957 18.0023 9.46317 18.0802C9.58107 18.4675 9.74287 18.836 9.94867 19.1845C10.2929 19.7672 10.7174 20.2819 11.2467 20.7075C11.7508 21.1128 12.31 21.4138 12.929 21.6047C13.3878 21.7462 13.8582 21.8183 14.3366 21.8406C14.6936 21.857 15.0493 21.8398 15.4038 21.7919C15.6329 21.7609 15.8587 21.716 16.0819 21.6568C16.2694 21.6072 16.4539 21.5468 16.6332 21.4726C16.6476 21.4668 16.6619 21.4591 16.6731 21.4487C16.6789 21.443 16.682 21.4283 16.6789 21.4204C16.664 21.3806 16.6341 21.35 16.6086 21.3172C16.2592 20.8653 15.9096 20.414 15.5599 19.9623C15.5471 19.9458 15.5344 19.9291 15.5212 19.9128C15.5146 19.9049 15.5068 19.8977 15.4994 19.8902C15.4877 19.8783 15.4718 19.8724 15.4565 19.8757C15.3745 19.8924 15.2929 19.9115 15.2108 19.9289C15.077 19.9572 14.9408 19.9643 14.8049 19.9762C14.7106 19.9845 14.6161 19.9883 14.522 19.983C14.3598 19.9738 14.1978 19.9634 14.0366 19.9377C13.6598 19.8781 13.3047 19.7568 12.9715 19.5721C12.5918 19.3615 12.2611 19.09 11.9787 18.7602C11.7659 18.5115 11.5966 18.2355 11.4705 17.9336C11.3157 17.5626 11.2343 17.1747 11.2108 16.7747C11.2027 16.6389 11.2046 16.5024 11.2052 16.3664C11.2065 16.093 11.243 15.8234 11.3051 15.5575C11.4089 15.1132 11.5937 14.7057 11.8715 14.3423C12.06 14.0957 12.2743 13.8732 12.5164 13.6787C12.996 13.2932 13.5471 13.0826 14.1566 13.0213C14.3759 12.9992 14.5961 12.9947 14.8168 13.0111C14.974 13.0228 15.1294 13.043 15.2838 13.0741C15.7657 13.1711 16.1987 13.3723 16.5844 13.6757C16.85 13.8843 17.0794 14.1279 17.279 14.3994C17.6746 14.937 17.8898 15.5413 17.9378 16.2043C17.962 16.5394 17.9471 16.874 17.8866 17.2058C17.8394 17.4645 17.7658 17.7147 17.6615 17.9558C17.649 17.9847 17.6364 18.0136 17.6226 18.0417C17.6158 18.0557 17.6058 18.0681 17.598 18.0817C17.5906 18.0943 17.57 18.0949 17.5589 18.0823C17.5381 18.0589 17.5169 18.0357 17.4973 18.0113C17.4644 17.9704 17.4328 17.9285 17.4003 17.8875C17.3795 17.8617 17.3557 17.8566 17.3332 17.8738C17.1667 18.0011 17.0004 18.1289 16.8345 18.2568C16.8264 18.263 16.8188 18.2713 16.8143 18.2802C16.8097 18.2891 16.8048 18.3013 16.8076 18.3096C16.818 18.3389 16.8326 18.3668 16.8437 18.3958C16.8853 18.5026 16.888 18.6094 16.8454 18.7172C16.7982 18.8372 16.7111 18.9151 16.5928 18.9594C16.5122 18.9896 16.4302 18.9938 16.3459 18.9683C16.2794 18.9483 16.2189 18.9202 16.1666 18.8745C16.1509 18.8607 16.1337 18.8489 16.1171 18.8364C16.1076 18.8292 16.0974 18.8294 16.0874 18.8358C16.0698 18.8472 16.0515 18.8575 16.035 18.8702C15.8937 18.9787 15.7525 19.0875 15.6119 19.197C15.5915 19.2128 15.5726 19.2313 15.5554 19.2506C15.5499 19.257 15.548 19.2717 15.5514 19.2796C15.5595 19.2985 15.5703 19.3168 15.5828 19.3332C15.665 19.4419 15.7474 19.5504 15.8307 19.6581C16.1063 20.0145 16.3824 20.3706 16.6582 20.727C17.0811 21.2741 17.5039 21.8213 17.9269 22.3687C18.0678 22.5511 18.2085 22.7336 18.3496 22.916C18.3687 22.9408 18.3895 22.9643 18.4097 22.9885C18.4196 23.0002 18.4409 23.0041 18.4519 22.9972C18.4651 22.9887 18.4791 22.9813 18.4916 22.9717C18.6412 22.857 18.7907 22.7417 18.9402 22.6266C18.9444 22.6236 18.9482 22.6196 18.9523 22.6164C18.9898 22.5877 18.9981 22.5623 18.979 22.5224C18.9656 22.4941 18.9521 22.4655 18.9431 22.4355C18.8939 22.27 18.9314 22.1245 19.0525 22.0026C19.1338 21.9207 19.236 21.8838 19.3511 21.8828C19.3668 21.8826 19.3829 21.8828 19.3982 21.886C19.4756 21.9021 19.5503 21.9258 19.6132 21.9768C19.6255 21.9866 19.6369 21.9975 19.649 22.0075C19.6571 22.0141 19.6656 22.0202 19.6739 22.0264C19.6839 22.034 19.7062 22.0338 19.7179 22.0247C19.8884 21.8938 20.0587 21.7628 20.2288 21.6317C20.2328 21.6285 20.2352 21.6234 20.2392 21.62C20.2475 21.6124 20.2509 21.5858 20.2443 21.576ZM18.1506 21.9075C18.1198 21.943 18.0832 21.9709 18.0418 21.9932C18.0304 21.9992 18.0106 21.9953 18.0002 21.9821C17.9747 21.9496 17.9497 21.9168 17.9248 21.8838C17.917 21.8732 17.9201 21.8502 17.9308 21.8415C17.963 21.8157 17.9955 21.7902 18.0282 21.7651C18.0391 21.7568 18.0629 21.7592 18.0714 21.7679C18.1038 21.8013 18.1342 21.8364 18.1544 21.8791C18.1565 21.8834 18.1565 21.8887 18.1574 21.8938C18.1552 21.8983 18.154 21.9038 18.1506 21.9075ZM18.4592 21.6687C18.4294 21.7045 18.3925 21.7315 18.3517 21.754C18.3413 21.7598 18.3202 21.7551 18.3096 21.7451C18.2793 21.7168 18.2553 21.6836 18.2342 21.6485C18.2277 21.6379 18.2306 21.6136 18.2383 21.6051C18.2663 21.5745 18.2996 21.5509 18.3347 21.5294C18.3477 21.5215 18.3695 21.5223 18.378 21.5306C18.4114 21.5628 18.4403 21.5985 18.4619 21.6398C18.464 21.6438 18.463 21.6492 18.4636 21.6541C18.4623 21.6591 18.4623 21.6651 18.4592 21.6687ZM18.7556 21.4451C18.7265 21.4747 18.6938 21.4994 18.6577 21.5196C18.6501 21.5238 18.6352 21.5247 18.629 21.52C18.5868 21.4889 18.5566 21.4477 18.5345 21.4006C18.5301 21.3915 18.5331 21.3809 18.5409 21.3728C18.5728 21.3389 18.6089 21.3104 18.6509 21.2898C18.6549 21.2879 18.6607 21.2896 18.6666 21.2896C18.6705 21.2907 18.6768 21.2906 18.6802 21.2936C18.7148 21.3249 18.7425 21.3615 18.7645 21.4026C18.77 21.4128 18.7652 21.4353 18.7556 21.4451ZM19.0642 21.2062C19.0366 21.237 19.0034 21.2607 18.9671 21.2806C18.958 21.2857 18.9314 21.2813 18.9238 21.274C18.8943 21.2451 18.869 21.213 18.8476 21.1779C18.8399 21.1655 18.8408 21.1438 18.8493 21.1349C18.8816 21.1015 18.9174 21.0728 18.9589 21.0521C18.9682 21.0474 18.9786 21.0489 18.9875 21.0562C19.0232 21.0862 19.0498 21.1236 19.072 21.1641C19.0744 21.1683 19.0744 21.1738 19.0756 21.1787C19.072 21.1879 19.0704 21.1992 19.0642 21.2062ZM19.3725 20.9698C19.3383 21.0019 19.3031 21.033 19.2596 21.0524C19.2557 21.0543 19.25 21.0526 19.2443 21.0526C19.2405 21.0509 19.2347 21.0496 19.2313 21.0462C19.198 21.013 19.1674 20.9779 19.1468 20.9351C19.1417 20.9247 19.1426 20.9149 19.1504 20.9058C19.181 20.8698 19.2182 20.8419 19.2593 20.8187C19.2696 20.8128 19.2927 20.817 19.3018 20.8283C19.3277 20.8609 19.353 20.894 19.3781 20.927C19.3863 20.9377 19.3825 20.9604 19.3725 20.9698Z" fill="white"/>
</g>
</g>
</g>
<defs>
<filter id="filter0_d_13659_123009" x="-6" y="-6" width="44" height="44" filterUnits="userSpaceOnUse" color-interpolation-filters="sRGB">
<feFlood flood-opacity="0" result="BackgroundImageFix"/>
<feColorMatrix in="SourceAlpha" type="matrix" values="0 0 0 0 0 0 0 0 0 0 0 0 0 0 0 0 0 0 127 0" result="hardAlpha"/>
<feOffset/>
<feGaussianBlur stdDeviation="3"/>
<feColorMatrix type="matrix" values="0 0 0 0 0 0 0 0 0 0 0 0 0 0 0 0 0 0 0.05 0"/>
<feBlend mode="normal" in2="BackgroundImageFix" result="effect1_dropShadow_13659_123009"/>
<feBlend mode="normal" in="SourceGraphic" in2="effect1_dropShadow_13659_123009" result="shape"/>
</filter>
<clipPath id="clip0_13659_123009">
<rect width="32" height="32" fill="white"/>
</clipPath>
</defs>
</svg>
