<svg height="139px" width="139px" version="1.1" id="Layer_1" xmlns="http://www.w3.org/2000/svg" xmlns:xlink="http://www.w3.org/1999/xlink" viewBox="0 0 512.00 512.00" xml:space="preserve" fill="#000000" transform="matrix(1, 0, 0, 1, 0, 0) rotate(0)">
  <g id="SVGRepo_bgCarrier" stroke-width="0"></g>
  <g id="SVGRepo_tracerCarrier" stroke-linecap="round" stroke-linejoin="round" stroke="#CCCCCC" stroke-width="4.096"></g>
  <g id="SVGRepo_iconCarrier">
    <path style="fill:#FFCD54;" d="M10,256.006C10,398.003,115.557,502.556,255.996,502C396.453,502.556,502,398.003,502,256.006 C502.556,115.557,396.453,10,255.996,10C115.557,10,10,115.557,10,256.006z"></path>
    <path style="fill:#F4F6F9;" d="M336.147,192.37H127.529l58.63-58.63c2.762-2.762,2.762-7.235,0-9.997 c-2.762-2.762-7.235-2.762-9.997,0l-70.7,70.7c-2.762,2.762-2.762,7.235,0,9.997l70.7,70.7c1.381,1.381,3.189,2.071,4.998,2.071 s3.618-0.69,4.998-2.071c2.762-2.762,2.762-7.235,0-9.997l-58.63-58.63h208.619c43.186,0,78.321,38.06,78.321,84.839 s-35.136,84.84-78.321,84.84H273.07c-3.908,0-7.07,3.166-7.07,7.07c0,3.904,3.163,7.07,7.07,7.07h63.077 c50.981,0,92.462-44.401,92.462-98.979S387.128,192.37,336.147,192.37z"></path>
  </g>
</svg>
