<svg width="713" height="150" viewBox="0 0 713 150" fill="none" xmlns="http://www.w3.org/2000/svg">
<mask id="mask0_4478_100556" style="mask-type:luminance" maskUnits="userSpaceOnUse" x="139" y="88" width="48" height="48">
<path d="M168.616 88.7624L139.5 105.607L156.979 135.828L186.095 118.983L168.616 88.7624Z" fill="white"/>
</mask>
<g mask="url(#mask0_4478_100556)">
<path d="M181.738 113.6C179.076 111.528 175.808 110.29 172.437 110.102C171.794 110.066 171.151 110.072 170.508 110.11C171.335 107.671 171.37 104.982 170.406 102.5C170.192 101.947 169.929 101.414 169.635 100.9C167.283 96.873 162.512 94.74 157.938 95.654C153.154 96.611 149.214 100.646 148.397 105.46C147.612 110.086 149.913 114.858 154.073 117.053C155.016 117.551 156.023 117.904 157.058 118.115C155.392 120.78 154.477 123.87 154.44 127.021C154.42 128.721 154.677 130.415 155.173 132.041C155.407 132.81 155.65 133.794 156.244 134.37C156.891 134.997 157.832 135.114 158.659 134.819C158.956 134.713 159.243 134.521 159.518 134.362L181.401 121.699C182.192 121.242 182.984 120.788 183.772 120.327C184.771 119.744 185.405 118.564 185.103 117.412C184.895 116.615 184.171 115.915 183.623 115.326C183.042 114.701 182.411 114.123 181.738 113.6ZM149.474 106.299C149.517 104.296 150.147 102.234 151.283 100.645C151.606 100.194 151.899 99.85 152.242 99.504C152.613 99.131 152.941 98.851 153.404 98.516C154.222 97.925 155.209 97.449 156.198 97.136C160.295 95.839 164.914 97.36 167.575 100.691C167.915 101.117 168.221 101.57 168.496 102.041C169.951 104.583 170.264 107.669 169.426 110.4C169.192 110.637 169.058 110.991 169.126 111.239C168.754 112.152 168.248 113.012 167.603 113.781C167.344 114.09 166.933 114.503 166.629 114.762C166.214 115.115 165.814 115.404 165.354 115.68C164.455 116.221 163.469 116.62 162.445 116.852C161.174 117.139 159.864 117.181 158.585 116.994C158.564 116.98 158.546 116.964 158.521 116.953C158.415 116.906 158.303 116.903 158.193 116.924C157.533 116.802 156.881 116.625 156.251 116.38C152.183 114.802 149.379 110.676 149.474 106.299ZM183.796 118.409C183.802 118.518 183.788 118.678 183.768 118.747C183.772 118.733 183.71 118.886 183.707 118.906C183.672 118.956 183.578 119.093 183.649 119.008C183.539 119.14 183.53 119.13 183.378 119.222C181.356 120.446 179.282 121.592 177.237 122.775L158.846 133.417C158.817 133.434 158.788 133.451 158.758 133.468C158.753 133.467 158.62 133.535 158.591 133.544C158.6 133.541 158.43 133.583 158.422 133.584C158.12 133.626 157.801 133.545 157.549 133.373C157.239 133.161 157.103 132.853 156.966 132.518C156.803 132.117 156.656 131.708 156.525 131.294C156.284 130.529 156.107 129.747 155.991 128.953C155.531 125.807 156.047 122.581 157.467 119.737C157.712 119.247 157.993 118.766 158.299 118.298C159.062 118.366 159.833 118.362 160.601 118.272C163.051 117.981 165.337 116.854 167.16 115.209C168.324 114.159 169.263 112.891 169.936 111.502C173.009 111.286 176.112 112.014 178.79 113.534C180.193 114.331 181.461 115.353 182.552 116.541C182.823 116.835 183.083 117.14 183.331 117.454C183.559 117.743 183.774 118.028 183.795 118.41L183.796 118.409Z" fill="white" fill-opacity="0.12"/>
</g>
<mask id="mask1_4478_100556" style="mask-type:luminance" maskUnits="userSpaceOnUse" x="133" y="10" width="48" height="49">
<path d="M162.698 10.9898L133.582 27.8344L151.061 58.0553L180.177 41.2107L162.698 10.9898Z" fill="white"/>
</mask>
<g mask="url(#mask1_4478_100556)">
<path d="M175.809 35.8297C173.146 33.7574 169.878 32.5192 166.507 32.3317C165.865 32.2958 165.221 32.3015 164.578 32.339C165.405 29.9 165.44 27.2114 164.476 24.7292C164.262 24.1767 164 23.6439 163.705 23.1298C161.353 19.1025 156.583 16.9695 152.008 17.8837C147.224 18.8401 143.284 22.8751 142.467 27.6893C141.682 32.3159 143.983 37.0872 148.143 39.2825C149.087 39.7805 150.093 40.1336 151.128 40.3449C149.462 43.0096 148.548 46.0998 148.511 49.2503C148.491 50.9501 148.748 52.6449 149.243 54.27C149.477 55.039 149.72 56.0236 150.314 56.599C150.961 57.2261 151.902 57.343 152.729 57.0487C153.026 56.9427 153.313 56.751 153.588 56.5917L175.471 43.9289C176.262 43.4714 177.054 43.018 177.843 42.5567C178.841 41.9733 179.475 40.7939 179.173 39.6411C178.965 38.8443 178.241 38.1444 177.693 37.5553C177.112 36.9309 176.481 36.3528 175.808 35.8292L175.809 35.8297ZM143.544 28.5286C143.588 26.5255 144.217 24.4635 145.354 22.8748C145.676 22.4235 145.97 22.0791 146.313 21.7338C146.683 21.3608 147.011 21.0804 147.475 20.7451C148.292 20.154 149.28 19.6784 150.268 19.3658C154.365 18.0681 158.984 19.5892 161.645 22.9206C161.986 23.3469 162.291 23.7993 162.566 24.2705C164.022 26.812 164.334 29.8983 163.496 32.6294C163.262 32.8662 163.128 33.2207 163.196 33.4689C162.824 34.3814 162.318 35.2415 161.673 36.0103C161.414 36.3192 161.004 36.7329 160.699 36.9918C160.284 37.3447 159.885 37.6334 159.425 37.9096C158.526 38.4507 157.539 38.849 156.515 39.0812C155.244 39.3689 153.934 39.4108 152.655 39.2235C152.634 39.2097 152.616 39.1935 152.591 39.1828C152.485 39.1357 152.374 39.1324 152.264 39.1536C151.603 39.0319 150.952 38.8546 150.321 38.6097C146.253 37.0315 143.449 32.9057 143.544 28.5286ZM177.866 40.6384C177.873 40.7476 177.858 40.9077 177.838 40.9767C177.842 40.9628 177.78 41.1155 177.777 41.1357C177.743 41.1853 177.649 41.3223 177.719 41.2374C177.61 41.3693 177.6 41.359 177.448 41.4511C175.427 42.6757 173.352 43.8212 171.307 45.0049L152.917 55.6466C152.888 55.6634 152.858 55.6806 152.829 55.6974C152.823 55.6969 152.691 55.7644 152.662 55.7739C152.671 55.7709 152.5 55.8122 152.492 55.8138C152.191 55.8553 151.871 55.7741 151.619 55.6021C151.31 55.39 151.173 55.083 151.037 54.7477C150.874 54.3461 150.726 53.9373 150.596 53.5239C150.354 52.7584 150.177 51.9764 150.062 51.182C149.601 48.0367 150.117 44.8104 151.537 41.9669C151.782 41.4766 152.063 40.996 152.37 40.5275C153.132 40.5959 153.903 40.5919 154.672 40.5011C157.122 40.2102 159.407 39.0833 161.23 37.4388C162.394 36.3883 163.334 35.12 164.006 33.7313C167.079 33.5154 170.182 34.2436 172.86 35.7636C174.263 36.5602 175.531 37.5827 176.623 38.7703C176.894 39.065 177.153 39.3698 177.401 39.6838C177.629 39.973 177.844 40.2577 177.865 40.6396L177.866 40.6384Z" fill="white" fill-opacity="0.12"/>
</g>
<mask id="mask2_4478_100556" style="mask-type:luminance" maskUnits="userSpaceOnUse" x="63" y="52" width="47" height="48">
<path d="M92.1196 52.4439L63.0039 69.2885L80.4833 99.5094L109.599 82.6648L92.1196 52.4439Z" fill="white"/>
</mask>
<g mask="url(#mask2_4478_100556)">
<path d="M105.213 77.2897C102.55 75.2174 99.2826 73.9793 95.9106 73.7917C95.2686 73.7558 94.6246 73.7616 93.9826 73.799C94.8086 71.36 94.8436 68.6714 93.8806 66.1892C93.6656 65.6367 93.4036 65.1039 93.1096 64.5898C90.7573 60.5625 85.9866 58.4296 81.4123 59.3437C76.6282 60.3002 72.6884 64.3351 71.8711 69.1494C71.0861 73.776 73.3873 78.5473 77.5471 80.7425C78.4907 81.2405 79.4971 81.5936 80.5322 81.8049C78.8657 84.4697 77.9514 87.56 77.9144 90.71C77.8945 92.41 78.1515 94.105 78.647 95.73C78.8811 96.499 79.1241 97.484 79.7178 98.059C80.365 98.686 81.306 98.803 82.1328 98.509C82.4302 98.403 82.7169 98.211 82.9921 98.052L104.876 85.389C105.666 84.9314 106.458 84.478 107.247 84.0167C108.245 83.4333 108.879 82.2539 108.578 81.1011C108.369 80.3043 107.645 79.6044 107.098 79.0153C106.517 78.391 105.886 77.8134 105.213 77.2897ZM72.948 69.9887C72.9915 67.9855 73.6213 65.9235 74.7577 64.3348C75.0804 63.8835 75.3736 63.5391 75.7167 63.1939C76.0868 62.8208 76.4149 62.5404 76.8787 62.2051C77.6964 61.614 78.6836 61.1384 79.6723 60.8258C83.7689 59.5281 88.3878 61.0493 91.0489 64.3807C91.3895 64.8069 91.695 65.2593 91.9704 65.7305C93.4256 68.272 93.7386 71.3583 92.9006 74.0894C92.6666 74.3262 92.5316 74.6807 92.5996 74.9289C92.2286 75.8414 91.7223 76.7015 91.0772 77.4703C90.818 77.7792 90.4074 78.1929 90.1029 78.4518C89.6881 78.8047 89.2886 79.0934 88.8287 79.3696C87.9296 79.9107 86.943 80.3091 85.9193 80.5412C84.648 80.8289 83.3381 80.8708 82.0588 80.6835C82.0379 80.6697 82.0199 80.6535 81.995 80.6428C81.8887 80.5957 81.7776 80.5925 81.6676 80.6137C81.0071 80.4919 80.3554 80.3146 79.725 80.0697C75.6568 78.4916 72.8526 74.3658 72.948 69.9887ZM107.271 82.0984C107.277 82.2076 107.262 82.3677 107.243 82.4367C107.247 82.4228 107.184 82.5755 107.181 82.5958C107.147 82.6453 107.053 82.7823 107.124 82.6974C107.014 82.8293 107.004 82.819 106.853 82.9111C104.831 84.1357 102.757 85.281 100.711 86.465L82.3205 97.107C82.2914 97.123 82.2618 97.141 82.2327 97.157C82.2274 97.157 82.0946 97.224 82.0656 97.234C82.0746 97.231 81.9038 97.272 81.896 97.274C81.5944 97.315 81.275 97.234 81.0232 97.062C80.7136 96.85 80.5771 96.543 80.4407 96.208C80.2774 95.806 80.1302 95.397 79.9997 94.984C79.7583 94.218 79.5814 93.436 79.4656 92.642C79.0053 89.497 79.5211 86.27 80.9411 83.4269C81.1859 82.9366 81.4672 82.456 81.7735 81.9875C82.5362 82.056 83.3073 82.0519 84.0757 81.9611C86.5254 81.6702 88.8108 80.5433 90.6338 78.8988C91.7982 77.8483 92.7376 76.58 93.4106 75.1913C96.4836 74.9754 99.5866 75.7036 102.264 77.2237C103.667 78.0202 104.936 79.0428 106.027 80.2303C106.298 80.525 106.558 80.8298 106.805 81.1438C107.034 81.433 107.249 81.7177 107.27 82.0996L107.271 82.0984Z" fill="white" fill-opacity="0.12"/>
</g>
<mask id="mask3_4478_100556" style="mask-type:luminance" maskUnits="userSpaceOnUse" x="244" y="42" width="35" height="36">
<path d="M278.179 42.4076H244.543V77.3205H278.179V42.4076Z" fill="white"/>
</mask>
<g mask="url(#mask3_4478_100556)">
<path d="M277.089 70.4856C275.822 67.3583 273.613 64.6499 270.788 62.799C270.25 62.4461 269.69 62.1288 269.115 61.8394C271.052 60.1422 272.428 57.8327 272.836 55.2014C272.927 54.6158 272.967 54.0233 272.969 53.4309C272.949 48.767 269.887 44.5313 265.47 43.0315C260.85 41.4632 255.419 42.9823 252.302 46.74C249.307 50.3515 248.91 55.634 251.412 59.6176C251.98 60.5212 252.674 61.3309 253.464 62.0323C250.688 63.5041 248.349 65.7209 246.74 68.4294C245.872 69.8906 245.246 71.4863 244.862 73.1411C244.679 73.924 244.397 74.898 244.623 75.6934C244.869 76.5603 245.625 77.1329 246.488 77.2922C246.799 77.3494 247.143 77.327 247.461 77.327H272.743C273.656 77.327 274.569 77.3314 275.483 77.327C276.639 77.322 277.778 76.6188 278.094 75.47C278.313 74.6758 278.036 73.7075 277.857 72.9233C277.667 72.0919 277.41 71.2759 277.089 70.4856ZM252.814 48.0059C253.855 46.2938 255.432 44.8245 257.211 44.0185C257.716 43.7895 258.142 43.6383 258.612 43.5113C259.119 43.3738 259.544 43.2954 260.113 43.2375C261.117 43.1354 262.209 43.2182 263.222 43.4429C267.418 44.3714 270.655 48.0015 271.29 52.2179C271.372 52.7575 271.41 53.302 271.412 53.8478C271.4 56.7766 270.126 59.6045 268.033 61.5487C267.712 61.6365 267.418 61.8761 267.353 62.125C266.574 62.7287 265.706 63.2197 264.762 63.562C264.384 63.6995 263.821 63.852 263.428 63.9236C262.892 64.0213 262.402 64.0711 261.865 64.0798C260.816 64.0978 259.763 63.9485 258.76 63.6367C257.516 63.249 256.361 62.6291 255.347 61.8263C255.336 61.8039 255.329 61.7809 255.312 61.7591C255.244 61.6651 255.149 61.6066 255.044 61.5699C254.533 61.1336 254.057 60.6538 253.634 60.126C250.903 56.7224 250.54 51.7468 252.814 48.0059ZM276.463 75.6784C276.414 75.7761 276.321 75.9075 276.27 75.9572C276.28 75.9473 276.15 76.0481 276.137 76.0643C276.082 76.0898 275.932 76.1614 276.036 76.1234C275.875 76.1825 275.872 76.1688 275.695 76.1726C273.331 76.2199 270.963 76.1726 268.599 76.1726H247.353C247.319 76.1726 247.285 76.1726 247.251 76.1726C247.247 76.1695 247.098 76.1614 247.068 76.1552C247.078 76.157 246.909 76.1072 246.902 76.1047C246.62 75.9896 246.384 75.7593 246.252 75.4843C246.09 75.1457 246.126 74.8115 246.175 74.453C246.235 74.0236 246.312 73.5961 246.406 73.1729C246.58 72.3893 246.819 71.6239 247.116 70.8783C248.292 67.9253 250.354 65.3911 253.006 63.641C253.464 63.3392 253.948 63.0641 254.448 62.8121C255.073 63.2533 255.743 63.6361 256.454 63.9423C258.72 64.9175 261.262 65.0868 263.664 64.5764C265.197 64.2503 266.645 63.623 267.923 62.7579C270.691 64.1103 273.013 66.2947 274.57 68.9515C275.385 70.3437 275.972 71.8641 276.322 73.4386C276.409 73.8295 276.481 74.2234 276.538 74.6192C276.591 74.9839 276.635 75.338 276.462 75.6791L276.463 75.6784Z" fill="white" fill-opacity="0.12"/>
</g>
<mask id="mask4_4478_100556" style="mask-type:luminance" maskUnits="userSpaceOnUse" x="498" y="41" width="34" height="36">
<path d="M531.927 41.1752H498.291V76.0881H531.927V41.1752Z" fill="white"/>
</mask>
<g mask="url(#mask4_4478_100556)">
<path d="M530.806 69.2512C529.538 66.1239 527.329 63.4155 524.505 61.5646C523.967 61.2118 523.407 60.8944 522.832 60.605C524.768 58.9079 526.145 56.5983 526.553 53.9671C526.644 53.3814 526.684 52.789 526.686 52.1965C526.666 47.5326 523.604 43.297 519.187 41.7971C514.567 40.2288 509.136 41.7479 506.019 45.5057C503.023 49.1171 502.627 54.3996 505.129 58.3832C505.696 59.2869 506.391 60.0965 507.181 60.7979C504.405 62.2698 502.066 64.4865 500.457 67.195C499.589 68.6563 498.963 70.2519 498.579 71.9068C498.396 72.6897 498.114 73.6636 498.34 74.459C498.586 75.3259 499.342 75.8985 500.205 76.0578C500.516 76.1151 500.86 76.0927 501.178 76.0927H526.46C527.373 76.0927 528.286 76.097 529.199 76.0927C530.355 76.0877 531.495 75.3844 531.811 74.2356C532.029 73.4415 531.753 72.4731 531.574 71.6889C531.383 70.8575 531.126 70.0416 530.806 69.2512ZM506.531 46.7715C507.571 45.0594 509.149 43.5901 510.928 42.7841C511.433 42.5551 511.859 42.4039 512.329 42.2769C512.836 42.1394 513.26 42.061 513.83 42.0031C514.834 41.901 515.926 41.9838 516.939 42.2085C521.134 43.137 524.371 46.7672 525.007 50.9835C525.089 51.5231 525.127 52.0677 525.129 52.6135C525.117 55.5422 523.842 58.3701 521.75 60.3144C521.429 60.4021 521.135 60.6417 521.07 60.8906C520.291 61.4943 519.423 61.9853 518.479 62.3276C518.1 62.4652 517.538 62.6176 517.145 62.6892C516.609 62.7869 516.118 62.8367 515.582 62.8454C514.533 62.8635 513.48 62.7141 512.477 62.4023C511.233 62.0146 510.078 61.3947 509.064 60.5919C509.053 60.5695 509.045 60.5465 509.029 60.5247C508.961 60.4307 508.866 60.3722 508.76 60.3355C508.25 59.8992 507.774 59.4194 507.351 58.8917C504.619 55.4881 504.257 50.5124 506.531 46.7715ZM530.18 74.4441C530.131 74.5418 530.038 74.6731 529.986 74.7229C529.997 74.7129 529.866 74.8137 529.854 74.8299C529.799 74.8554 529.649 74.927 529.753 74.889C529.592 74.9482 529.589 74.9345 529.412 74.9382C527.048 74.9855 524.679 74.9382 522.316 74.9382H501.069C501.036 74.9382 501.002 74.9382 500.968 74.9382C500.964 74.9351 500.815 74.927 500.785 74.9208C500.794 74.9226 500.626 74.8729 500.618 74.8704C500.336 74.7552 500.101 74.525 499.969 74.2499C499.807 73.9113 499.842 73.5771 499.892 73.2187C499.952 72.7892 500.029 72.3617 500.123 71.9385C500.297 71.155 500.536 70.3895 500.833 69.6439C502.009 66.6909 504.071 64.1567 506.723 62.4067C507.181 62.1048 507.665 61.8298 508.164 61.5777C508.79 62.019 509.46 62.4017 510.17 62.7079C512.437 63.6831 514.979 63.8524 517.38 63.3421C518.914 63.0159 520.362 62.3886 521.64 61.5236C524.408 62.8759 526.73 65.0603 528.286 67.7171C529.102 69.1093 529.688 70.6297 530.039 72.2042C530.126 72.5951 530.198 72.989 530.255 73.3848C530.308 73.7495 530.352 74.1036 530.179 74.4447L530.18 74.4441Z" fill="white" fill-opacity="0.12"/>
</g>
<mask id="mask5_4478_100556" style="mask-type:luminance" maskUnits="userSpaceOnUse" x="587" y="11" width="34" height="36">
<path d="M620.691 11.2221H587.055V46.135H620.691V11.2221Z" fill="white"/>
</mask>
<g mask="url(#mask5_4478_100556)">
<path d="M619.57 39.2982C618.302 36.1709 616.093 33.4624 613.269 31.6116C612.731 31.2587 612.171 30.9413 611.596 30.6519C613.532 28.9548 614.908 26.6453 615.317 24.014C615.407 23.4284 615.447 22.8359 615.45 22.2434C615.43 17.5796 612.368 13.3439 607.95 11.844C603.33 10.2757 597.9 11.7949 594.782 15.5526C591.787 19.1641 591.391 24.4465 593.893 28.4302C594.46 29.3338 595.155 30.1435 595.945 30.8448C593.168 32.3167 590.83 34.5335 589.221 37.2419C588.353 38.7032 587.727 40.2989 587.342 41.9537C587.16 42.7366 586.877 43.7106 587.103 44.5059C587.35 45.3729 588.106 45.9454 588.969 46.1047C589.279 46.162 589.623 46.1396 589.941 46.1396H615.223C616.137 46.1396 617.05 46.1439 617.963 46.1396C619.119 46.1346 620.258 45.4314 620.575 44.2825C620.793 43.4884 620.517 42.52 620.337 41.7359C620.147 40.9044 619.89 40.0886 619.57 39.2982ZM595.295 16.8184C596.335 15.1064 597.912 13.637 599.691 12.8311C600.197 12.6021 600.623 12.4508 601.093 12.3239C601.6 12.1863 602.024 12.1079 602.594 12.05C603.597 11.948 604.69 12.0307 605.702 12.2554C609.898 13.184 613.135 16.8141 613.771 21.0305C613.852 21.57 613.89 22.1146 613.893 22.6604C613.88 25.5891 612.606 28.4171 610.513 30.3613C610.192 30.449 609.899 30.6886 609.833 30.9376C609.055 31.5413 608.186 32.0323 607.243 32.3746C606.864 32.5121 606.301 32.6646 605.908 32.7362C605.372 32.8339 604.882 32.8836 604.346 32.8924C603.297 32.9104 602.243 32.761 601.241 32.4493C599.996 32.0615 598.841 31.4417 597.828 30.6389C597.817 30.6164 597.809 30.5934 597.793 30.5716C597.724 30.4777 597.63 30.4192 597.524 30.3824C597.013 29.9462 596.538 29.4664 596.115 28.9386C593.383 25.535 593.021 20.5593 595.295 16.8184ZM618.944 44.491C618.895 44.5887 618.802 44.72 618.75 44.7698C618.761 44.7599 618.63 44.8607 618.618 44.8769C618.563 44.9024 618.413 44.9739 618.517 44.936C618.356 44.9951 618.353 44.9814 618.175 44.9851C615.812 45.0324 613.443 44.9851 611.08 44.9851H589.833C589.8 44.9851 589.765 44.9851 589.732 44.9851C589.727 44.982 589.579 44.9739 589.549 44.9677C589.558 44.9696 589.389 44.9198 589.382 44.9173C589.1 44.8022 588.864 44.5719 588.732 44.2968C588.571 43.9583 588.606 43.6241 588.656 43.2656C588.716 42.8362 588.793 42.4086 588.887 41.9854C589.061 41.2019 589.299 40.4364 589.597 39.6909C590.773 36.7378 592.834 34.2036 595.487 32.4536C595.944 32.1518 596.428 31.8767 596.928 31.6246C597.554 32.0659 598.223 32.4486 598.934 32.7548C601.2 33.73 603.743 33.8993 606.144 33.389C607.678 33.0629 609.126 32.4356 610.403 31.5705C613.172 32.9229 615.493 35.1073 617.05 37.7641C617.866 39.1563 618.452 40.6766 618.802 42.2512C618.89 42.642 618.962 43.036 619.019 43.4318C619.072 43.7965 619.115 44.1506 618.942 44.4916L618.944 44.491Z" fill="white" fill-opacity="0.12"/>
</g>
<mask id="mask6_4478_100556" style="mask-type:luminance" maskUnits="userSpaceOnUse" x="445" y="92" width="44" height="45">
<path d="M477.829 92.3098L445.955 103.056L457.106 136.14L488.98 125.393L477.829 92.3098Z" fill="white"/>
</mask>
<g mask="url(#mask6_4478_100556)">
<path d="M485.758 119.27C483.559 116.712 480.6 114.851 477.333 113.999C476.71 113.837 476.078 113.715 475.441 113.625C476.734 111.398 477.301 108.769 476.847 106.146C476.746 105.562 476.595 104.987 476.408 104.425C474.9 100.012 470.645 96.977 465.981 96.967C461.102 96.957 456.441 100.132 454.687 104.689C453.002 109.068 454.313 114.2 457.956 117.176C458.783 117.851 459.699 118.396 460.672 118.808C458.511 121.09 457.003 123.938 456.343 127.019C455.988 128.681 455.904 130.393 456.068 132.084C456.145 132.884 456.189 133.897 456.657 134.579C457.167 135.322 458.066 135.623 458.935 135.498C459.248 135.453 459.566 135.322 459.868 135.22L483.825 127.142C484.69 126.85 485.557 126.563 486.421 126.267C487.515 125.892 488.37 124.862 488.302 123.672C488.256 122.85 487.685 122.021 487.264 121.335C486.818 120.608 486.314 119.916 485.758 119.27ZM455.577 105.724C456.016 103.77 457.041 101.873 458.47 100.541C458.875 100.163 459.231 99.883 459.635 99.613C460.072 99.32 460.449 99.11 460.97 98.874C461.889 98.456 462.951 98.185 463.982 98.075C468.254 97.614 472.481 100.02 474.43 103.812C474.679 104.297 474.889 104.801 475.066 105.318C475.989 108.097 475.685 111.184 474.323 113.695C474.047 113.881 473.845 114.202 473.862 114.458C473.318 115.279 472.651 116.022 471.867 116.648C471.551 116.899 471.067 117.224 470.717 117.417C470.241 117.681 469.792 117.885 469.287 118.064C468.298 118.417 467.252 118.612 466.203 118.637C464.9 118.667 463.607 118.448 462.391 118.012C462.373 117.994 462.358 117.974 462.336 117.959C462.241 117.892 462.133 117.867 462.021 117.866C461.398 117.615 460.794 117.313 460.224 116.948C456.549 114.595 454.617 109.996 455.577 105.724ZM486.823 124.391C486.808 124.499 486.762 124.653 486.729 124.717C486.736 124.704 486.644 124.842 486.638 124.861C486.594 124.903 486.475 125.018 486.561 124.949C486.427 125.057 486.42 125.045 486.253 125.105C484.029 125.905 481.769 126.617 479.529 127.372L459.396 134.161C459.365 134.172 459.332 134.183 459.3 134.193C459.295 134.192 459.152 134.232 459.121 134.235C459.131 134.234 458.955 134.241 458.947 134.241C458.643 134.222 458.346 134.079 458.134 133.86C457.872 133.591 457.799 133.263 457.732 132.908C457.651 132.482 457.588 132.052 457.542 131.621C457.457 130.823 457.438 130.021 457.482 129.219C457.653 126.045 458.797 122.985 460.752 120.479C461.089 120.047 461.46 119.632 461.853 119.233C462.587 119.451 463.344 119.6 464.115 119.663C466.574 119.863 469.037 119.211 471.149 117.96C472.499 117.161 473.67 116.104 474.605 114.876C477.66 115.273 480.557 116.601 482.881 118.621C484.099 119.68 485.14 120.934 485.974 122.314C486.182 122.656 486.376 123.006 486.557 123.363C486.723 123.692 486.878 124.014 486.822 124.392L486.823 124.391Z" fill="white" fill-opacity="0.12"/>
</g>
<mask id="mask7_4478_100556" style="mask-type:luminance" maskUnits="userSpaceOnUse" x="532" y="104" width="44" height="44">
<path d="M564.085 104.011L532.211 114.757L543.362 147.841L575.236 137.095L564.085 104.011Z" fill="white"/>
</mask>
<g mask="url(#mask7_4478_100556)">
<path d="M572.006 130.97C569.806 128.412 566.848 126.551 563.581 125.699C562.958 125.537 562.326 125.415 561.689 125.325C562.982 123.098 563.548 120.469 563.095 117.845C562.994 117.261 562.843 116.687 562.656 116.125C561.148 111.712 556.893 108.676 552.229 108.667C547.35 108.657 542.689 111.832 540.935 116.389C539.25 120.768 540.561 125.901 544.204 128.876C545.031 129.551 545.947 130.096 546.92 130.509C544.759 132.79 543.251 135.638 542.591 138.719C542.235 140.381 542.152 142.093 542.316 143.784C542.393 144.585 542.436 145.598 542.904 146.279C543.415 147.022 544.314 147.323 545.183 147.198C545.495 147.153 545.814 147.022 546.115 146.921L570.072 138.842C570.938 138.55 571.804 138.263 572.668 137.967C573.762 137.592 574.617 136.562 574.55 135.372C574.503 134.55 573.932 133.721 573.512 133.035C573.066 132.308 572.562 131.616 572.006 130.969V130.97ZM541.825 117.425C542.264 115.47 543.289 113.573 544.718 112.241C545.123 111.863 545.479 111.583 545.883 111.313C546.32 111.02 546.697 110.81 547.218 110.574C548.137 110.156 549.199 109.885 550.23 109.775C554.502 109.314 558.729 111.72 560.678 115.512C560.927 115.997 561.137 116.501 561.314 117.018C562.237 119.797 561.933 122.884 560.571 125.395C560.294 125.581 560.093 125.902 560.11 126.158C559.565 126.979 558.899 127.722 558.114 128.348C557.799 128.599 557.315 128.924 556.965 129.117C556.489 129.381 556.04 129.585 555.534 129.764C554.546 130.117 553.5 130.312 552.451 130.337C551.148 130.367 549.855 130.149 548.638 129.712C548.621 129.694 548.606 129.675 548.584 129.659C548.489 129.592 548.381 129.567 548.269 129.566C547.645 129.316 547.042 129.013 546.472 128.648C542.797 126.295 540.865 121.697 541.825 117.425ZM573.071 136.091C573.056 136.199 573.01 136.353 572.977 136.417C572.984 136.404 572.892 136.541 572.885 136.561C572.842 136.602 572.722 136.718 572.809 136.649C572.675 136.757 572.668 136.745 572.501 136.805C570.276 137.605 568.017 138.317 565.777 139.072L545.644 145.861C545.612 145.872 545.58 145.883 545.548 145.894C545.543 145.892 545.399 145.932 545.369 145.935C545.379 145.934 545.203 145.941 545.195 145.941C544.891 145.922 544.594 145.779 544.381 145.561C544.12 145.291 544.047 144.963 543.979 144.608C543.899 144.182 543.835 143.752 543.789 143.321C543.704 142.523 543.686 141.721 543.729 140.92C543.901 137.746 545.045 134.685 547 132.179C547.337 131.747 547.708 131.332 548.101 130.933C548.835 131.151 549.591 131.3 550.362 131.363C552.821 131.563 555.285 130.911 557.397 129.66C558.746 128.861 559.918 127.804 560.852 126.576C563.907 126.973 566.805 128.301 569.129 130.321C570.346 131.38 571.387 132.633 572.222 134.014C572.429 134.356 572.624 134.706 572.804 135.063C572.971 135.392 573.125 135.713 573.07 136.092L573.071 136.091Z" fill="white" fill-opacity="0.12"/>
</g>
<mask id="mask8_4478_100556" style="mask-type:luminance" maskUnits="userSpaceOnUse" x="332" y="-4" width="44" height="44">
<path d="M364.071 -3.91766L332.197 6.82849L343.348 39.9121L375.222 29.166L364.071 -3.91766Z" fill="white"/>
</mask>
<g mask="url(#mask8_4478_100556)">
<path d="M371.993 23.0374C369.794 20.479 366.835 18.6182 363.568 17.7668C362.945 17.6044 362.313 17.4826 361.676 17.3921C362.969 15.1651 363.536 12.5367 363.082 9.9128C362.981 9.3288 362.83 8.7547 362.643 8.1924C361.135 3.7792 356.881 0.743801 352.216 0.734001C347.337 0.724201 342.676 3.899 340.922 8.456C339.237 12.8355 340.548 17.968 344.192 20.9434C345.018 21.6184 345.934 22.1638 346.907 22.5759C344.746 24.8579 343.238 27.7058 342.579 30.7865C342.223 32.4486 342.139 34.1608 342.303 35.8518C342.38 36.6519 342.424 37.6652 342.892 38.3467C343.402 39.0895 344.301 39.3905 345.17 39.2657C345.482 39.2207 345.801 39.0895 346.103 38.9879L370.059 30.9094C370.925 30.6175 371.791 30.3299 372.656 30.0339C373.75 29.6598 374.605 28.6293 374.537 27.4396C374.491 26.6173 373.92 25.7879 373.499 25.1021C373.053 24.3751 372.549 23.684 371.993 23.0374ZM341.812 9.4919C342.251 7.5371 343.277 5.6407 344.705 4.3085C345.111 3.93 345.466 3.6505 345.871 3.3801C346.307 3.0877 346.684 2.8778 347.206 2.641C348.124 2.2236 349.186 1.9528 350.217 1.8422C354.489 1.3814 358.716 3.7871 360.665 7.5795C360.914 8.0647 361.124 8.5686 361.301 9.085C362.224 11.8644 361.92 14.9514 360.558 17.4624C360.282 17.6482 360.08 17.9691 360.097 18.2259C359.553 19.0467 358.886 19.7895 358.102 20.4153C357.787 20.6668 357.302 20.991 356.952 21.1845C356.476 21.4483 356.027 21.6521 355.522 21.8318C354.533 22.1841 353.487 22.3792 352.438 22.404C351.135 22.4343 349.843 22.2159 348.626 21.779C348.608 21.7614 348.594 21.742 348.571 21.7265C348.476 21.6593 348.368 21.6341 348.256 21.6331C347.633 21.3829 347.029 21.0801 346.459 20.7152C342.784 18.3628 340.852 13.7634 341.812 9.4919ZM373.058 28.1583C373.043 28.2666 372.997 28.4207 372.964 28.4844C372.971 28.4716 372.879 28.6088 372.873 28.6282C372.829 28.6698 372.71 28.7856 372.796 28.7164C372.662 28.8239 372.655 28.8119 372.488 28.8721C370.264 29.6721 368.004 30.3843 365.764 31.1394L345.631 37.9285C345.6 37.9393 345.567 37.9502 345.535 37.9609C345.53 37.9594 345.387 37.9992 345.356 38.0029C345.366 38.0017 345.19 38.0084 345.182 38.0084C344.878 37.9894 344.581 37.8465 344.369 37.628C344.107 37.3589 344.034 37.0308 343.967 36.6752C343.886 36.2492 343.823 35.8194 343.777 35.3884C343.692 34.5902 343.673 33.7886 343.717 32.9871C343.888 29.8129 345.032 26.7528 346.987 24.2468C347.324 23.8146 347.695 23.3992 348.088 23.0007C348.822 23.2188 349.579 23.3676 350.35 23.4307C352.809 23.6307 355.272 22.9786 357.384 21.7278C358.734 20.9286 359.905 19.8715 360.84 18.6435C363.895 19.0404 366.792 20.3686 369.116 22.3888C370.334 23.4474 371.375 24.7008 372.209 26.081C372.417 26.4235 372.611 26.7737 372.792 27.1305C372.958 27.4592 373.112 27.7809 373.057 28.1593L373.058 28.1583Z" fill="white" fill-opacity="0.12"/>
</g>
<mask id="mask9_4478_100556" style="mask-type:luminance" maskUnits="userSpaceOnUse" x="613" y="90" width="44" height="45">
<path d="M645.014 90.2938L613.141 101.04L624.292 134.124L656.166 123.377L645.014 90.2938Z" fill="white"/>
</mask>
<g mask="url(#mask9_4478_100556)">
<path d="M652.936 117.249C650.736 114.691 647.778 112.83 644.51 111.979C643.888 111.816 643.256 111.695 642.618 111.604C643.911 109.377 644.478 106.749 644.025 104.125C643.924 103.541 643.772 102.967 643.585 102.404C642.077 97.9909 637.823 94.9559 633.158 94.9459C628.279 94.9359 623.619 98.1109 621.865 102.668C620.18 107.047 621.491 112.18 625.134 115.155C625.96 115.83 626.877 116.376 627.85 116.788C625.689 119.07 624.181 121.918 623.521 124.998C623.165 126.661 623.081 128.373 623.245 130.064C623.323 130.864 623.366 131.877 623.834 132.559C624.344 133.301 625.244 133.602 626.112 133.478C626.425 133.433 626.744 133.301 627.045 133.2L651.002 125.121C651.867 124.829 652.734 124.542 653.598 124.246C654.692 123.872 655.547 122.841 655.48 121.652C655.433 120.829 654.862 120 654.442 119.314C653.996 118.587 653.493 117.895 652.936 117.249ZM622.754 103.704C623.193 101.749 624.219 99.8529 625.647 98.5199C626.053 98.1419 626.409 97.862 626.813 97.592C627.25 97.3 627.627 97.0899 628.148 96.8529C629.066 96.4349 630.128 96.1649 631.159 96.0539C635.432 95.5929 639.658 97.9989 641.607 101.791C641.857 102.277 642.067 102.781 642.243 103.297C643.167 106.076 642.862 109.163 641.5 111.674C641.224 111.86 641.022 112.181 641.04 112.438C640.495 113.259 639.829 114.001 639.044 114.627C638.729 114.879 638.245 115.203 637.895 115.396C637.418 115.66 636.97 115.864 636.464 116.044C635.476 116.396 634.43 116.591 633.38 116.616C632.077 116.646 630.785 116.428 629.568 115.991C629.55 115.973 629.536 115.954 629.514 115.938C629.419 115.871 629.31 115.846 629.198 115.845C628.575 115.595 627.971 115.292 627.402 114.927C623.726 112.575 621.795 107.976 622.754 103.704ZM654.001 122.37C653.985 122.479 653.939 122.633 653.906 122.696C653.913 122.683 653.822 122.821 653.815 122.84C653.771 122.882 653.652 122.997 653.738 122.928C653.605 123.036 653.597 123.024 653.43 123.084C651.206 123.884 648.946 124.596 646.707 125.351L626.574 132.14C626.542 132.151 626.51 132.162 626.478 132.173C626.473 132.171 626.329 132.211 626.299 132.215C626.308 132.214 626.133 132.22 626.125 132.22C625.821 132.201 625.524 132.058 625.311 131.84C625.05 131.571 624.976 131.243 624.909 130.887C624.829 130.461 624.765 130.031 624.719 129.6C624.634 128.802 624.615 128.001 624.659 127.199C624.83 124.025 625.975 120.965 627.929 118.459C628.266 118.027 628.637 117.611 629.03 117.213C629.764 117.431 630.521 117.579 631.292 117.643C633.751 117.843 636.214 117.191 638.327 115.94C639.676 115.141 640.848 114.083 641.782 112.855C644.837 113.252 647.735 114.581 650.058 116.601C651.276 117.659 652.317 118.913 653.152 120.293C653.359 120.635 653.553 120.986 653.734 121.342C653.9 121.671 654.055 121.993 654 122.371L654.001 122.37Z" fill="white" fill-opacity="0.12"/>
</g>
<mask id="mask10_4478_100556" style="mask-type:luminance" maskUnits="userSpaceOnUse" x="294" y="101" width="44" height="45">
<path d="M326.304 101.562L294.43 112.308L305.581 145.392L337.455 134.645L326.304 101.562Z" fill="white"/>
</mask>
<g mask="url(#mask10_4478_100556)">
<path d="M334.227 128.516C332.027 125.958 329.069 124.097 325.801 123.245C325.178 123.083 324.546 122.961 323.909 122.871C325.202 120.644 325.769 118.016 325.315 115.392C325.214 114.808 325.063 114.234 324.876 113.671C323.367 109.258 319.113 106.223 314.448 106.213C309.569 106.203 304.908 109.377 303.154 113.934C301.469 118.313 302.781 123.445 306.424 126.421C307.25 127.096 308.167 127.641 309.14 128.054C306.979 130.335 305.471 133.183 304.811 136.264C304.456 137.926 304.372 139.638 304.536 141.329C304.614 142.129 304.657 143.142 305.125 143.824C305.635 144.566 306.535 144.867 307.403 144.743C307.716 144.698 308.035 144.567 308.336 144.465L332.293 136.388C333.159 136.096 334.025 135.809 334.89 135.513C335.984 135.138 336.839 134.108 336.771 132.918C336.725 132.096 336.153 131.267 335.733 130.581C335.287 129.854 334.783 129.162 334.227 128.516ZM304.044 114.97C304.483 113.015 305.508 111.119 306.937 109.787C307.342 109.408 307.698 109.129 308.103 108.858C308.539 108.566 308.916 108.356 309.437 108.119C310.356 107.702 311.418 107.431 312.449 107.321C316.721 106.86 320.948 109.266 322.897 113.058C323.147 113.544 323.357 114.047 323.534 114.564C324.457 117.343 324.153 120.43 322.791 122.941C322.515 123.127 322.313 123.448 322.33 123.704C321.786 124.525 321.119 125.268 320.335 125.894C320.02 126.145 319.535 126.469 319.185 126.663C318.709 126.926 318.26 127.13 317.755 127.31C316.766 127.662 315.72 127.857 314.671 127.882C313.368 127.912 312.075 127.694 310.858 127.257C310.841 127.239 310.826 127.22 310.804 127.204C310.709 127.137 310.601 127.112 310.489 127.111C309.865 126.861 309.262 126.558 308.692 126.193C305.016 123.84 303.084 119.242 304.044 114.97ZM335.292 133.637C335.277 133.745 335.231 133.899 335.198 133.963C335.205 133.95 335.113 134.088 335.107 134.107C335.063 134.149 334.944 134.264 335.03 134.195C334.896 134.303 334.889 134.291 334.722 134.351C332.498 135.151 330.238 135.863 327.998 136.618L307.865 143.406C307.833 143.416 307.801 143.427 307.769 143.438C307.764 143.436 307.62 143.476 307.59 143.48C307.599 143.479 307.424 143.485 307.416 143.485C307.112 143.466 306.815 143.324 306.602 143.105C306.34 142.836 306.267 142.508 306.2 142.152C306.119 141.726 306.056 141.296 306.01 140.865C305.925 140.067 305.906 139.266 305.95 138.464C306.121 135.29 307.265 132.23 309.22 129.724C309.557 129.292 309.928 128.877 310.321 128.478C311.055 128.697 311.811 128.845 312.583 128.908C315.042 129.109 317.505 128.457 319.617 127.206C320.967 126.407 322.138 125.35 323.073 124.122C326.128 124.519 329.026 125.847 331.349 127.868C332.567 128.926 333.608 130.18 334.443 131.56C334.65 131.902 334.845 132.252 335.025 132.609C335.192 132.938 335.346 133.26 335.291 133.638L335.292 133.637Z" fill="white" fill-opacity="0.12"/>
</g>
<mask id="mask11_4478_100556" style="mask-type:luminance" maskUnits="userSpaceOnUse" x="383" y="41" width="47" height="48">
<path d="M429.461 58.2279L400.113 41.7904L383.056 72.2518L412.404 88.6893L429.461 58.2279Z" fill="white"/>
</mask>
<g mask="url(#mask11_4478_100556)">
<path d="M414.793 82.1966C415.215 78.8486 414.611 75.406 413.051 72.4109C412.754 71.84 412.42 71.2894 412.06 70.756C414.579 70.2215 416.908 68.8791 418.55 66.7828C418.915 66.3163 419.239 65.8188 419.531 65.3031C421.792 61.2241 421.19 56.0322 418.068 52.5649C414.804 48.9387 409.323 47.6104 404.768 49.3656C400.39 51.0527 397.463 55.4679 397.7 60.1663C397.754 61.2321 397.964 62.2779 398.311 63.276C395.169 63.2034 392.046 63.9948 389.319 65.5715C387.847 66.4223 386.522 67.5086 385.378 68.7645C384.836 69.3585 384.114 70.0702 383.922 70.8745C383.714 71.7514 384.094 72.6204 384.769 73.1811C385.012 73.3828 385.323 73.5314 385.6 73.6868L407.659 86.042C408.456 86.488 409.25 86.938 410.049 87.381C411.06 87.941 412.398 87.884 413.235 87.037C413.813 86.45 414.046 85.47 414.272 84.6987C414.512 83.8802 414.687 83.0422 414.794 82.196L414.793 82.1966ZM404.596 50.7203C406.34 49.7349 408.434 49.2238 410.38 49.39C410.933 49.4371 411.379 49.5134 411.851 49.6322C412.36 49.76 412.769 49.899 413.294 50.1267C414.22 50.5282 415.132 51.1344 415.906 51.8251C419.113 54.6857 420.164 59.4348 418.659 63.4244C418.466 63.935 418.233 64.4286 417.969 64.9061C416.527 67.4553 414.034 69.2999 411.258 69.9736C410.935 69.8932 410.562 69.9588 410.383 70.144C409.409 70.2903 408.411 70.2943 407.421 70.1319C407.023 70.0667 406.458 69.9249 406.08 69.7951C405.565 69.6186 405.112 69.4224 404.64 69.1679C403.716 68.6709 402.87 68.0258 402.148 67.2639C401.251 66.3174 400.546 65.2122 400.054 64.0164C400.055 63.9914 400.06 63.9677 400.057 63.9408C400.043 63.8253 399.989 63.7281 399.915 63.6443C399.682 63.014 399.502 62.3631 399.39 61.6958C398.67 57.3913 400.784 52.8731 404.596 50.7203ZM411.71 86.421C411.62 86.483 411.474 86.552 411.405 86.57C411.419 86.567 411.256 86.591 411.237 86.599C411.177 86.594 411.011 86.583 411.12 86.601C410.951 86.574 410.955 86.56 410.798 86.477C408.713 85.363 406.669 84.1645 404.607 83.0095L386.07 72.6267C386.041 72.6102 386.011 72.5935 385.981 72.5771C385.979 72.5723 385.853 72.4925 385.83 72.4725C385.838 72.4787 385.715 72.3528 385.709 72.347C385.52 72.1088 385.427 71.7927 385.446 71.4882C385.47 71.1137 385.664 70.8395 385.883 70.551C386.145 70.2056 386.421 69.8702 386.71 69.5469C387.245 68.9484 387.826 68.397 388.45 67.8919C390.919 65.8901 393.956 64.6864 397.125 64.4558C397.672 64.416 398.228 64.4126 398.788 64.4368C399.118 65.1277 399.515 65.7889 399.986 66.4033C401.487 68.3616 403.622 69.7518 405.967 70.48C407.464 70.945 409.034 71.1053 410.571 70.9748C412.326 73.5076 413.284 76.548 413.345 79.6269C413.376 81.2402 413.145 82.8532 412.681 84.3981C412.566 84.7817 412.437 85.161 412.293 85.534C412.161 85.878 412.027 86.208 411.71 86.421Z" fill="white" fill-opacity="0.12"/>
</g>
<mask id="mask12_4478_100556" style="mask-type:luminance" maskUnits="userSpaceOnUse" x="-8" y="23" width="47" height="48">
<path d="M21.1157 23.0001L-8 39.8447L9.47943 70.0656L38.5951 53.221L21.1157 23.0001Z" fill="white"/>
</mask>
<g mask="url(#mask12_4478_100556)">
<path d="M34.2087 47.8459C31.5461 45.7737 28.2783 44.5355 24.9071 44.3479C24.2646 44.312 23.621 44.3178 22.9785 44.3552C23.805 41.9162 23.8403 39.2276 22.8764 36.7454C22.6619 36.1929 22.3998 35.6601 22.1054 35.146C19.7535 31.1187 14.9828 28.9858 10.4085 29.8999C5.62436 30.8564 1.68452 34.8913 0.867206 39.7056C0.0822562 44.3322 2.38346 49.1035 6.54326 51.2987C7.48686 51.7967 8.49326 52.1498 9.52836 52.3611C7.86186 55.0259 6.94756 58.1161 6.91056 61.2666C6.89066 62.9663 7.14766 64.6611 7.64316 66.2862C7.87726 67.0553 8.12026 68.0399 8.71396 68.6152C9.36116 69.2423 10.3022 69.3593 11.129 69.0649C11.4264 68.9589 11.7131 68.7672 11.9883 68.6079L33.8713 55.9452C34.662 55.4877 35.4543 55.0342 36.2427 54.5729C37.2409 53.9896 37.8751 52.8101 37.5736 51.6573C37.3651 50.8605 36.6412 50.1606 36.0936 49.5716C35.5126 48.9472 34.8817 48.3696 34.2087 47.8459ZM1.94414 40.5449C1.98763 38.5417 2.61746 36.4797 3.75386 34.891C4.07656 34.4397 4.36976 34.0953 4.71286 33.7501C5.08296 33.377 5.41106 33.0966 5.87486 32.7613C6.69256 32.1703 7.67976 31.6946 8.66846 31.382C12.7651 30.0843 17.384 31.6055 20.0451 34.9369C20.3857 35.3631 20.6912 35.8155 20.9665 36.2867C22.4219 38.8282 22.7344 41.9145 21.8964 44.6456C21.6624 44.8824 21.5281 45.2369 21.5962 45.4851C21.2246 46.3976 20.7185 47.2577 20.0733 48.0265C19.8142 48.3354 19.4036 48.7491 19.0991 49.008C18.6842 49.361 18.2848 49.6496 17.8249 49.9258C16.9258 50.4669 15.9392 50.8653 14.9155 51.0975C13.6442 51.3851 12.3343 51.427 11.055 51.2397C11.0341 51.226 11.0161 51.2098 10.9912 51.199C10.8849 51.1519 10.7738 51.1487 10.6638 51.1699C10.0033 51.0481 9.35156 50.8708 8.72116 50.6259C4.65296 49.0478 1.84875 44.922 1.94414 40.5449ZM36.2663 52.6546C36.2727 52.7639 36.2581 52.924 36.2384 52.9929C36.2425 52.979 36.1799 53.1317 36.1772 53.152C36.1426 53.2015 36.0486 53.3386 36.1196 53.2536C36.0097 53.3855 36.0001 53.3752 35.8485 53.4673C33.8266 54.6919 31.7525 55.8375 29.7069 57.0212L11.3167 67.6628C11.2876 67.6796 11.258 67.6968 11.2289 67.7136C11.2236 67.7131 11.0908 67.7806 11.0618 67.7902C11.0708 67.7871 10.8999 67.8285 10.8922 67.8301C10.5906 67.8716 10.2712 67.7904 10.0193 67.6183C9.70976 67.4063 9.57316 67.0992 9.43686 66.764C9.27356 66.3623 9.12636 65.9536 8.99586 65.5402C8.75446 64.7746 8.57756 63.9926 8.46176 63.1983C8.00146 60.0529 8.51726 56.8267 9.93726 53.9831C10.182 53.4928 10.4634 53.0122 10.7697 52.5437C11.5324 52.6122 12.3035 52.6082 13.0719 52.5173C15.5216 52.2264 17.807 51.0995 19.63 49.4551C20.7944 48.4045 21.7337 47.1362 22.4064 45.7476C25.4795 45.5316 28.5825 46.2598 31.26 47.7799C32.663 48.5764 33.9314 49.599 35.0228 50.7865C35.2939 51.0812 35.5536 51.3861 35.8012 51.7C36.0296 51.9892 36.2445 52.2739 36.2655 52.6558L36.2663 52.6546Z" fill="white" fill-opacity="0.12"/>
</g>
<mask id="mask13_4478_100556" style="mask-type:luminance" maskUnits="userSpaceOnUse" x="679" y="59" width="34" height="35">
<path d="M712.636 59H679V93.9129H712.636V59Z" fill="white"/>
</mask>
<g mask="url(#mask13_4478_100556)">
<path d="M711.515 87.076C710.247 83.9488 708.038 81.2403 705.214 79.3895C704.676 79.0366 704.116 78.7192 703.541 78.4298C705.477 76.7327 706.854 74.4232 707.262 71.7919C707.353 71.2063 707.393 70.6138 707.395 70.0213C707.375 65.3575 704.313 61.1218 699.896 59.6219C695.276 58.0536 689.845 59.5728 686.728 63.3305C683.732 66.942 683.336 72.2244 685.838 76.208C686.405 77.1117 687.1 77.9214 687.89 78.6227C685.114 80.0946 682.775 82.3114 681.166 85.02C680.298 86.481 679.672 88.077 679.288 89.732C679.105 90.515 678.823 91.488 679.049 92.284C679.295 93.151 680.051 93.723 680.914 93.883C681.225 93.94 681.569 93.917 681.887 93.917H707.169C708.082 93.917 708.995 93.922 709.908 93.917C711.064 93.913 712.204 93.209 712.52 92.06C712.738 91.266 712.462 90.298 712.283 89.514C712.092 88.682 711.835 87.867 711.515 87.076ZM687.24 64.5963C688.28 62.8843 689.858 61.4149 691.637 60.609C692.142 60.38 692.568 60.2287 693.038 60.1018C693.545 59.9642 693.969 59.8858 694.539 59.8279C695.543 59.7259 696.635 59.8086 697.648 60.0333C701.843 60.9618 705.08 64.592 705.716 68.8084C705.798 69.3479 705.836 69.8925 705.838 70.4383C705.826 73.367 704.551 76.195 702.459 78.1392C702.138 78.2269 701.844 78.4665 701.779 78.7155C701 79.3191 700.132 79.8102 699.188 80.1525C698.809 80.29 698.247 80.4425 697.854 80.514C697.318 80.6118 696.827 80.6615 696.291 80.6703C695.242 80.6883 694.189 80.5389 693.186 80.2271C691.942 79.8394 690.787 79.2196 689.773 78.4167C689.762 78.3943 689.754 78.3713 689.738 78.3495C689.67 78.2556 689.575 78.1971 689.469 78.1603C688.959 77.7241 688.483 77.2442 688.06 76.7165C685.328 73.3129 684.966 68.3372 687.24 64.5963ZM710.889 92.269C710.84 92.367 710.747 92.498 710.695 92.548C710.706 92.538 710.575 92.639 710.563 92.655C710.508 92.68 710.358 92.752 710.462 92.714C710.301 92.773 710.298 92.759 710.121 92.763C707.757 92.81 705.388 92.763 703.025 92.763H681.778C681.745 92.763 681.711 92.763 681.677 92.763C681.673 92.76 681.524 92.752 681.494 92.746C681.503 92.747 681.335 92.698 681.327 92.695C681.045 92.58 680.81 92.35 680.678 92.075C680.516 91.736 680.551 91.402 680.601 91.043C680.661 90.614 680.738 90.187 680.832 89.763C681.006 88.98 681.245 88.214 681.542 87.469C682.718 84.5157 684.78 81.9815 687.432 80.2315C687.89 79.9297 688.374 79.6546 688.873 79.4025C689.499 79.8438 690.169 80.2265 690.879 80.5327C693.146 81.5079 695.688 81.6772 698.089 81.1669C699.623 80.8408 701.071 80.2135 702.349 79.3484C705.117 80.7007 707.439 82.8852 708.995 85.542C709.811 86.934 710.397 88.455 710.748 90.029C710.835 90.42 710.907 90.814 710.964 91.21C711.017 91.574 711.061 91.928 710.888 92.27L710.889 92.269Z" fill="white" fill-opacity="0.12"/>
</g>
</svg>
